:SAMPLES-PER-SECOND 30
:FULLY-SPECIFIED
:DEGREES
48
root  -38.2223 33.8837 -1.56895 -133.908 85.4538 -131.11
RightUpLeg  -41.5924 0.536736 7.79915
RightLeg  50.8134 5.71391 -6.22116
RightFoot  -9.06647 0.118262 -3.26982
RightToes  2.21189e-009 -3.18055e-015 8.94531e-016
Spine  22.546 -3.00049 5.86627
Spine1  12.3999 -2.12085 -0.394254
HEad  -1.77443 -0.225184 3.75902
LeftShoulder1  0 0 -2.47967e-037
LeftArm  -9.64457 -19.3197 -80.0747
LeftForeArm  -142.084 -57.3841 162.394
LeftHand  0.593699 5.85256 14.2345
RightShoulder  -2.48481e-017 0 -8.08114e-019
RightArm  -8.18545 5.35936 81.9581
RightForeArm  -105.406 54.5429 -142.291
RightHand  2.09599 -13.3197 -12.652
LeftUpLeg  -42.282 -4.32693 4.19832
LeftLeg  78.1564 -12.3886 0.749434
LeftFoot  -0.864915 0.543076 -4.84504
LeftToes  -2.77942e-009 -2.0471e-010 1.20669e-012
49
root  -37.6107 33.5513 -1.44668 -146.55 85.9888 -143.373
RightUpLeg  -41.838 -0.725289 7.13711
RightLeg  53.8827 6.33367 -6.12611
RightFoot  -10.7895 0.0903196 -4.2819
RightToes  2.21189e-009 -3.18055e-015 8.94531e-016
Spine  26.1721 -2.84966 4.77181
Spine1  10.7323 -1.69602 -1.29526
HEad  -3.24227 -0.709168 4.0356
LeftShoulder1  0 0 -2.47967e-037
LeftArm  -8.9542 -23.9424 -80.5769
LeftForeArm  -142.796 -55.4255 164.46
LeftHand  0.555582 5.74305 14.7999
RightShoulder  -2.48481e-017 0 -8.08114e-019
RightArm  -8.03375 10.6921 80.8278
RightForeArm  -106.849 52.6616 -146.138
RightHand  2.2852 -13.7297 -14.137
LeftUpLeg  -45.3881 -3.44367 2.63348
LeftLeg  73.6832 -12.1831 0.521083
LeftFoot  -4.8263 0.373212 -5.25499
LeftToes  -2.77942e-009 -2.0471e-010 1.20669e-012
50
root  -37.0856 33.0828 -1.36499 -161.523 86.0441 -158.017
RightUpLeg  -42.705 -2.22395 6.41275
RightLeg  57.8325 7.22907 -5.69998
RightFoot  -12.7905 0.0194852 -4.95145
RightToes  2.21189e-009 -3.18055e-015 8.94531e-016
Spine  29.5575 -2.86333 3.68017
Spine1  9.4457 -1.56582 -1.77356
HEad  -4.9203 -0.72703 3.87428
LeftShoulder1  0 0 -2.47967e-037
LeftArm  -7.79543 -27.5568 -81.1723
LeftForeArm  -142.362 -53.9763 165.763
LeftHand  0.58352 5.90966 16.0713
RightShoulder  -2.48481e-017 0 -8.08114e-019
RightArm  -7.3475 15.8879 79.5471
RightForeArm  -106.964 51.2992 -148.544
RightHand  2.43636 -13.9935 -15.4459
LeftUpLeg  -48.1247 -2.67123 0.916912
LeftLeg  68.7951 -11.7921 1.10672
LeftFoot  -6.5784 0.364767 -6.41738
LeftToes  -2.77942e-009 -2.0471e-010 1.20669e-012
51
root  -36.5952 32.3995 -1.31866 -172.241 85.7704 -168.406
RightUpLeg  -44.1428 -3.42737 5.92487
RightLeg  62.6119 8.00816 -5.53734
RightFoot  -15.2107 -0.0925348 -5.28877
RightToes  2.21189e-009 -3.18055e-015 8.94531e-016
Spine  32.7936 -2.88327 2.79371
Spine1  8.22679 -1.59978 -1.69408
HEad  -6.94543 -0.325665 3.46537
LeftShoulder1  0 0 -2.47967e-037
LeftArm  -6.75758 -30.328 -81.4696
LeftForeArm  -139.452 -53.1509 166.25
LeftHand  0.326243 5.17005 17.8717
RightShoulder  -2.48481e-017 0 -8.08114e-019
RightArm  -6.2404 20.3263 78.7545
RightForeArm  -106.09 49.9649 -150.623
RightHand  2.42647 -13.7736 -16.0789
LeftUpLeg  -50.8204 -2.81901 -0.225866
LeftLeg  66.0541 -11.8422 0.570545
LeftFoot  -7.67971 0.310664 -6.65641
LeftToes  -2.77942e-009 -2.0471e-010 1.20669e-012
52
root  -36.0974 31.5225 -1.3096 -176.59 85.4988 -172.177
RightUpLeg  -45.5818 -4.23442 5.74497
RightLeg  67.9764 8.66307 -5.66149
RightFoot  -18.1942 -0.228661 -5.32568
RightToes  2.21189e-009 -3.18055e-015 8.94531e-016
Spine  36.1707 -2.88877 2.3448
Spine1  7.04039 -1.64299 -1.38271
HEad  -9.14408 0.000793484 3.38153
LeftShoulder1  0 0 -2.47967e-037
LeftArm  -6.10193 -32.7186 -81.4746
LeftForeArm  -138.036 -52.4789 166.711
LeftHand  0.127148 4.6375 19.6247
RightShoulder  -2.48481e-017 0 -8.08114e-019
RightArm  -5.25172 24.3786 77.9565
RightForeArm  -105.237 48.7469 -152.362
RightHand  2.46997 -13.8092 -16.5707
LeftUpLeg  -53.2399 -3.70671 -0.747851
LeftLeg  66.1322 -12.1165 -0.159272
LeftFoot  -8.7657 0.257021 -7.00277
LeftToes  -2.77942e-009 -2.0471e-010 1.20669e-012
53
root  -35.5703 30.4315 -1.34188 177.379 85.731 -177.631
RightUpLeg  -47.3669 -4.55411 5.35704
RightLeg  74.0778 9.42695 -5.61781
RightFoot  -21.9366 -0.379967 -5.02395
RightToes  2.21189e-009 -3.18055e-015 8.94531e-016
Spine  38.9967 -2.72355 1.91562
Spine1  6.49308 -1.54307 -1.36039
HEad  -11.5528 0.107933 3.61276
LeftShoulder1  0 0 -2.47967e-037
LeftArm  -5.48867 -34.974 -81.2521
LeftForeArm  -137.433 -51.7301 167.284
LeftHand  0.143755 4.71377 19.8297
RightShoulder  -2.48481e-017 0 -8.08114e-019
RightArm  -4.41667 27.913 77.5035
RightForeArm  -104.006 47.9831 -153.345
RightHand  2.55085 -13.9307 -17.3008
LeftUpLeg  -55.1485 -4.36549 -1.25583
LeftLeg  68.3061 -12.1887 -0.16111
LeftFoot  -8.75667 0.19468 -5.79762
LeftToes  -2.77942e-009 -2.0471e-010 1.20669e-012
54
root  -35.0638 29.2157 -1.40148 165.784 86.2521 171.242
RightUpLeg  -49.4976 -4.43305 4.6095
RightLeg  80.4499 10.19 -5.52393
RightFoot  -25.7598 -0.515218 -4.72421
RightToes  2.21189e-009 -3.18055e-015 8.94531e-016
Spine  41.4657 -2.47361 1.10373
Spine1  6.03802 -1.3045 -1.87975
HEad  -13.8876 0.138862 4.07853
LeftShoulder1  0 0 -2.47967e-037
LeftArm  -5.53233 -37.0256 -80.6076
LeftForeArm  -136.944 -51.3507 167.549
LeftHand  0.123151 4.62129 19.5102
RightShoulder  -2.48481e-017 0 -8.08114e-019
RightArm  -3.59509 30.2912 77.4837
RightForeArm  -101.399 47.6991 -153.528
RightHand  2.58348 -13.9169 -17.8066
LeftUpLeg  -56.9648 -4.60535 -2.19436
LeftLeg  72.7331 -12.0967 0.886893
LeftFoot  -11.0369 0.0487383 -2.66433
LeftToes  -2.77942e-009 -2.0471e-010 1.20669e-012
55
root  -34.5818 27.848 -1.49476 160.396 86.888 166.078
RightUpLeg  -52.0801 -4.09698 4.50419
RightLeg  86.9266 10.9296 -5.72514
RightFoot  -29.3209 -0.606516 -4.33046
RightToes  2.21189e-009 -3.18055e-015 8.94531e-016
Spine  43.3805 -2.41715 0.886118
Spine1  5.77421 -1.0304 -2.53516
HEad  -16.0812 0.150026 4.20503
LeftShoulder1  0 0 -2.47967e-037
LeftArm  -6.21863 -38.9784 -79.7995
LeftForeArm  -137.196 -51.0504 167.81
LeftHand  0.174542 4.69411 18.4044
RightShoulder  -2.48481e-017 0 -8.08114e-019
RightArm  -3.1458 32.0819 77.4704
RightForeArm  -99.4365 47.6006 -153.509
RightHand  2.59545 -13.9482 -17.8612
LeftUpLeg  -60.044 -4.84933 -2.45034
LeftLeg  79.2788 -12.2183 2.34451
LeftFoot  -15.2701 -0.0816647 -1.49673
LeftToes  -2.77942e-009 -2.0471e-010 1.20669e-012
56
root  -34.0992 26.3045 -1.61195 158.65 87.0681 164.378
RightUpLeg  -55.2031 -4.23742 4.54432
RightLeg  93.8215 11.7913 -6.15502
RightFoot  -32.5898 -0.648627 -3.84384
RightToes  2.21189e-009 -3.18055e-015 8.94531e-016
Spine  44.8344 -2.38916 0.794959
Spine1  5.77794 -1.07446 -2.33791
HEad  -18.4611 0.200691 3.85578
LeftShoulder1  0 0 -2.47967e-037
LeftArm  -6.4214 -40.7774 -79.5205
LeftForeArm  -135.694 -51.0373 167.704
LeftHand  0.0659143 4.37816 18.6803
RightShoulder  -2.48481e-017 0 -8.08114e-019
RightArm  -2.66264 33.6462 77.6535
RightForeArm  -97.7223 47.62 -153.35
RightHand  2.63144 -13.9758 -18.2636
LeftUpLeg  -64.0385 -5.58662 -2.47213
LeftLeg  86.1766 -12.7227 3.29759
LeftFoot  -17.8102 -0.117353 -1.72384
LeftToes  -2.77942e-009 -2.0471e-010 1.20669e-012
57
root  -33.6539 24.7105 -1.71575 149.887 86.8348 155.993
RightUpLeg  -58.4093 -4.34153 4.02052
RightLeg  101.021 12.8215 -6.53237
RightFoot  -34.5022 -0.57763 -3.11624
RightToes  2.21189e-009 -3.18055e-015 8.94531e-016
Spine  46.8371 -2.23202 0.21556
Spine1  5.56152 -1.09177 -2.09577
HEad  -21.0179 -0.0236837 3.51715
LeftShoulder1  0 0 -2.47967e-037
LeftArm  -6.24868 -42.3429 -79.5607
LeftForeArm  -134.873 -51.2075 167.505
LeftHand  0.01697 4.34125 20.1419
RightShoulder  -2.48481e-017 0 -8.08114e-019
RightArm  -2.42156 35.0039 77.6411
RightForeArm  -95.9803 47.7285 -153.063
RightHand  2.67693 -14.0662 -18.5586
LeftUpLeg  -67.5825 -6.08781 -3.20723
LeftLeg  92.8989 -13.3901 3.81146
LeftFoot  -20.5045 -0.154412 -1.49826
LeftToes  -2.77942e-009 -2.0471e-010 1.20669e-012
58
root  -33.2188 23.1293 -1.83906 146.572 87.1052 153.475
RightUpLeg  -61.2768 -4.00217 3.82029
RightLeg  108.245 13.7239 -6.2171
RightFoot  -35.0947 -0.367604 -1.94997
RightToes  2.21189e-009 -3.18055e-015 8.94531e-016
Spine  49.4917 -2.13286 0.18419
Spine1  4.98135 -0.918135 -2.04237
HEad  -23.1561 -0.314904 2.69246
LeftShoulder1  0 0 -2.47967e-037
LeftArm  -6.35703 -43.5255 -79.5774
LeftForeArm  -135.145 -51.0994 167.612
LeftHand  0.106685 4.62669 20.1636
RightShoulder  -2.48481e-017 0 -8.08114e-019
RightArm  -2.56889 36.0018 77.6402
RightForeArm  -94.7601 47.7321 -152.966
RightHand  2.68211 -14.0373 -18.7401
LeftUpLeg  -70.6659 -6.08946 -3.56382
LeftLeg  99.4101 -14.161 4.22183
LeftFoot  -23.1931 -0.178171 -1.29187
LeftToes  -2.77942e-009 -2.0471e-010 1.20669e-012
59
root  -32.7679 21.5745 -1.98836 151.773 87.4043 159.639
RightUpLeg  -63.6712 -4.1092 3.79935
RightLeg  115.385 14.1657 -5.01614
RightFoot  -35.6644 -0.0908725 -0.518548
RightToes  2.21189e-009 -3.18055e-015 8.94531e-016
Spine  51.3248 -2.17189 0.476026
Spine1  5.89446 -1.03496 -1.36542
HEad  -25.5887 -0.200082 1.78024
LeftShoulder1  0 0 -2.47967e-037
LeftArm  -6.88099 -44.7328 -79.3244
LeftForeArm  -133.681 -51.0715 167.522
LeftHand  0.0125739 4.32154 20.0424
RightShoulder  -2.48481e-017 0 -8.08114e-019
RightArm  -2.35408 37.1523 78.2962
RightForeArm  -92.8118 47.8456 -152.659
RightHand  2.66739 -13.8233 -19.3742
LeftUpLeg  -73.5465 -6.40946 -3.65634
LeftLeg  105.45 -15.1404 5.00203
LeftFoot  -25.6012 -0.210158 -1.24012
LeftToes  -2.77942e-009 -2.0471e-010 1.20669e-012
60
root  -32.3292 20.078 -2.12801 154.119 87.6584 162.694
RightUpLeg  -66.2494 -4.30099 3.60299
RightLeg  122.12 14.2922 -3.76601
RightFoot  -36.0323 0.142832 0.651927
RightToes  2.21189e-009 -3.18055e-015 8.94531e-016
Spine  52.5215 -2.15917 0.540179
Spine1  6.9391 -1.06512 -0.929096
HEad  -27.762 -0.297629 2.08513
LeftShoulder1  0 0 -2.47967e-037
LeftArm  -6.27119 -45.3755 -79.8486
LeftForeArm  -131.786 -51.0938 167.359
LeftHand  0.0378544 4.2898 18.7447
RightShoulder  -2.48481e-017 0 -8.08114e-019
RightArm  -2.03297 37.6199 79.3213
RightForeArm  -91.132 47.9389 -152.401
RightHand  2.59597 -13.5616 -19.3905
LeftUpLeg  -76.5801 -6.55039 -3.97531
LeftLeg  111.275 -16.0134 5.21586
LeftFoot  -27.414 -0.201073 -0.986189
LeftToes  -2.77942e-009 -2.0471e-010 1.20669e-012
61
root  -31.8893 18.6599 -2.28187 165.03 87.8482 173.933
RightUpLeg  -69.0087 -4.62185 3.62821
RightLeg  128.159 14.6332 -3.1728
RightFoot  -36.2848 0.344712 1.62233
RightToes  2.21189e-009 -3.18055e-015 8.94531e-016
Spine  54.0897 -2.3945 0.933203
Spine1  6.1853 -0.968293 -1.14699
HEad  -29.0021 -0.665467 2.7289
LeftShoulder1  0 0 -2.47967e-037
LeftArm  -4.94268 -45.07 -80.8227
LeftForeArm  -131.404 -50.8659 167.513
LeftHand  0.165674 4.58108 17.5216
RightShoulder  -2.48481e-017 0 -8.08114e-019
RightArm  -2.22598 36.9947 79.7432
RightForeArm  -90.6549 47.8339 -152.517
RightHand  2.53353 -13.3678 -19.2758
LeftUpLeg  -79.8946 -6.81558 -4.44765
LeftLeg  116.57 -17.1252 5.61194
LeftFoot  -28.8087 -0.167101 -0.598039
LeftToes  -2.77942e-009 -2.0471e-010 1.20669e-012
62
root  -31.4088 17.3562 -2.42182 120.099 89.3749 128.978
RightUpLeg  -71.6903 -4.36249 4.58736
RightLeg  133.454 14.9888 -2.79026
RightFoot  -36.5715 0.483578 2.27762
RightToes  2.21189e-009 -3.18055e-015 8.94531e-016
Spine  54.6272 -2.25988 1.51036
Spine1  6.42648 -0.444605 -1.23547
HEad  -30.7751 -0.781489 2.75324
LeftShoulder1  0 0 -2.47967e-037
LeftArm  -5.00756 -45.1683 -80.7229
LeftForeArm  -132.523 -50.4828 167.898
LeftHand  0.14986 4.57066 17.9381
RightShoulder  -2.48481e-017 0 -8.08114e-019
RightArm  -2.09807 36.8051 80.1336
RightForeArm  -89.883 47.8767 -152.4
RightHand  2.6819 -13.7432 -19.8779
LeftUpLeg  -83.3349 -6.27757 -4.328
LeftLeg  121.433 -18.4688 6.30422
LeftFoot  -30.2622 -0.147317 -0.391423
LeftToes  -2.77942e-009 -2.0471e-010 1.20669e-012
